<?xml version="1.0" standalone="no"?>
<!DOCTYPE svg PUBLIC "-//W3C//DTD SVG 20010904//EN"
 "http://www.w3.org/TR/2001/REC-SVG-20010904/DTD/svg10.dtd">
<svg version="1.0" xmlns="http://www.w3.org/2000/svg"
 width="299.000000pt" height="299.000000pt" viewBox="0 0 299.000000 299.000000"
 preserveAspectRatio="xMidYMid meet">
<metadata>
Created by potrace 1.14, written by Peter Selinger 2001-2017
</metadata>
<g transform="translate(0.000000,299.000000) scale(0.100000,-0.100000)"
fill="#000000" stroke="none">
<path d="M1733 2585 c-18 -13 -51 -16 -165 -15 -79 1 -169 1 -200 0 l-58 0 0
-135 c0 -122 -2 -135 -17 -136 -10 -1 -40 -2 -68 -3 l-50 -1 -3 -47 -3 -48
-55 0 c-36 0 -54 4 -55 13 0 6 -1 41 -1 77 l-1 65 66 -1 c37 0 67 2 68 5 1 3
2 34 3 68 1 35 7 68 14 75 7 7 12 22 12 35 0 31 -47 44 -67 18 -17 -24 -16
-30 2 -49 10 -9 15 -34 15 -70 l0 -56 -65 0 c-44 0 -66 -4 -67 -12 -1 -7 -2
-42 -4 -78 -1 -36 -2 -71 -3 -78 -1 -9 -17 -12 -58 -10 l-58 3 0 100 c0 82 3
103 18 118 21 21 21 31 1 52 -33 32 -81 -6 -56 -45 7 -12 12 -58 12 -125 l0
-105 -54 0 -55 0 1 53 c1 29 -1 57 -4 63 -4 5 -54 9 -112 8 -78 -1 -109 2
-117 12 -26 31 -77 3 -64 -35 9 -28 42 -37 64 -17 15 13 38 16 114 15 l96 -1
-2 -48 c-1 -46 -3 -49 -31 -55 -58 -11 -106 -72 -109 -136 l-2 -39 -137 0
-138 0 0 42 c0 24 7 49 16 59 31 34 -9 80 -50 57 -20 -11 -21 -51 -2 -67 9 -8
13 -28 11 -57 -2 -33 2 -47 14 -52 9 -5 75 -8 148 -7 87 1 133 -2 136 -9 2 -6
3 -31 3 -56 l-1 -45 -200 -2 c-158 -1 -205 1 -222 13 -31 19 -50 18 -63 -6
-22 -41 30 -82 59 -46 16 19 417 22 423 3 3 -7 4 -34 4 -62 l-1 -50 -248 -3
c-226 -2 -247 -4 -248 -20 -1 -9 -2 -73 -3 -142 0 -72 -6 -133 -12 -144 -21
-36 5 -73 41 -60 30 12 37 42 15 64 -18 18 -20 33 -20 144 0 110 2 124 17 128
10 2 117 4 238 3 l220 0 1 -62 1 -63 -164 0 -163 0 -1 -122 c-1 -68 0 -131 0
-141 1 -9 -5 -20 -13 -23 -20 -8 -21 -38 -1 -57 18 -19 52 -11 60 13 6 20 -3
50 -16 50 -13 0 -8 248 5 253 6 2 74 3 151 3 l140 -1 0 -70 c0 -63 -2 -70 -20
-71 -65 -3 -60 4 -59 -99 1 -92 0 -95 -22 -95 -12 0 -36 8 -52 17 -25 14 -32
15 -46 4 -9 -7 -16 -21 -16 -30 0 -37 46 -55 70 -26 7 8 27 14 46 13 19 -1 37
1 40 5 3 3 6 47 6 97 l0 91 26 -3 c21 -2 26 -9 30 -38 7 -65 40 -103 114 -129
24 -9 27 -14 25 -61 0 -28 -7 -56 -14 -62 -19 -16 -16 -46 6 -58 30 -15 40
-12 53 15 9 20 8 28 -5 42 -9 12 -15 37 -16 70 l0 53 55 0 c30 0 55 -3 55 -7
1 -5 2 -39 3 -78 l1 -70 70 -5 70 -5 -2 -50 c-1 -27 -8 -63 -17 -79 -18 -35
-7 -56 30 -56 34 0 47 31 26 61 -11 16 -16 42 -15 86 1 42 -2 63 -10 64 -7 1
-37 2 -67 3 l-55 1 -3 68 -3 67 56 0 c45 0 55 -3 56 -17 4 -61 0 -58 72 -61
l67 -3 0 -151 c0 -129 -3 -154 -17 -170 -23 -26 -6 -53 33 -53 23 0 30 5 32
23 2 13 -2 30 -10 39 -10 12 -13 58 -13 177 l0 161 -60 1 c-33 1 -65 2 -71 3
-6 1 -9 12 -6 26 l4 25 124 0 124 0 2 -272 3 -273 185 0 c102 0 187 -3 190 -7
3 -4 6 -53 5 -108 0 -55 2 -101 5 -101 3 -1 44 -3 91 -4 59 -2 94 -8 111 -19
22 -14 26 -14 46 0 26 18 28 31 6 55 -16 17 -36 16 -62 -4 -10 -8 -80 -12
-157 -8 -11 1 -15 22 -17 109 l-3 107 -175 2 c-96 1 -182 2 -191 3 -14 0 -16
28 -16 260 l1 260 70 0 71 0 -1 -175 c0 -151 2 -175 15 -176 9 -1 158 -2 331
-3 l315 -1 0 -82 1 -83 -46 -1 c-87 -2 -125 3 -142 18 -23 21 -58 1 -58 -33 0
-34 37 -48 65 -25 16 13 39 17 112 16 l92 -1 3 40 3 41 120 1 c94 1 124 -2
137 -13 25 -23 68 -9 68 21 0 13 -7 30 -16 37 -14 11 -21 10 -46 -4 -23 -13
-55 -17 -149 -17 l-119 0 0 55 0 55 -329 0 -330 0 -3 98 c-2 53 -2 129 0 167
3 66 5 71 32 87 42 24 70 75 70 126 0 36 3 43 18 40 15 -3 18 -22 22 -188 l5
-185 452 -1 c248 -1 458 -4 466 -7 21 -8 21 -96 0 -119 -18 -20 -14 -47 10
-62 36 -23 73 29 44 62 -8 10 -14 40 -15 74 0 32 -3 61 -6 66 -2 4 -212 8
-465 8 -401 -1 -460 1 -464 14 -2 8 -3 40 -3 70 l1 55 538 1 c516 1 537 0 538
-18 1 -10 2 -24 4 -30 1 -7 -4 -23 -12 -35 -27 -45 -10 -90 30 -79 29 7 41 41
21 60 -11 11 -14 51 -16 165 0 83 -4 151 -7 152 -3 1 -114 2 -246 3 l-240 1 2
40 c0 22 2 47 2 56 1 14 33 16 286 16 l285 0 1 -26 c5 -88 0 -141 -15 -164
-16 -23 -16 -26 -1 -41 21 -21 44 -20 61 2 17 22 17 27 -2 47 -13 13 -17 36
-16 106 0 71 -3 92 -15 96 -8 3 -144 6 -301 7 l-285 1 -1 68 c-1 60 1 67 19
68 123 5 529 -1 538 -9 29 -22 47 -21 64 5 16 25 16 26 -6 45 -22 17 -25 18
-49 2 -22 -15 -57 -17 -261 -16 -130 0 -252 1 -271 1 l-35 1 1 53 c1 28 3 60
3 69 1 16 19 18 228 17 180 0 231 -3 247 -15 40 -28 66 -13 66 37 0 26 -45 36
-68 16 -14 -12 -56 -15 -244 -16 -172 0 -228 3 -229 12 -1 7 -1 32 -2 57 l0
45 156 0 c86 1 159 4 163 8 4 4 7 35 6 68 -1 42 3 66 13 76 19 19 19 38 0 57
-13 12 -21 13 -40 4 -28 -13 -32 -34 -12 -63 8 -11 14 -44 15 -73 l1 -53 -151
3 -150 3 -12 35 c-12 39 -66 80 -104 80 -13 0 -72 -12 -131 -26 -58 -14 -116
-28 -129 -30 -13 -3 -69 -16 -125 -29 -55 -14 -102 -23 -104 -21 -3 2 -5 56
-6 120 l-2 116 75 0 c610 3 720 0 746 -16 24 -16 26 -16 47 5 17 17 19 25 11
39 -14 21 -62 28 -69 10 -4 -11 -58 -13 -268 -13 l-262 0 -3 58 -3 57 124 0
c100 0 127 -3 137 -15 28 -34 87 6 64 43 -15 22 -41 27 -61 10 -13 -10 -92
-13 -377 -13 -199 -1 -366 -4 -371 -7 -6 -4 -10 -54 -9 -117 l1 -112 -126 3
-125 3 -1 28 c-2 36 5 39 76 39 53 0 59 2 60 22 1 11 2 73 2 136 l2 115 190 1
c153 1 193 -2 207 -13 33 -29 85 8 62 45 -15 23 -35 26 -61 7z m183 -232 l0
-58 -136 0 -135 0 -1 -134 c-1 -126 -2 -135 -21 -142 -19 -7 -21 -3 -25 43 -6
61 -31 97 -86 123 l-41 20 -1 103 0 102 223 0 222 0 1 -57z m19 -1014 c126
-26 214 -39 238 -36 40 6 82 37 92 68 6 18 22 19 241 19 l234 -1 1 -22 c1 -12
2 -50 3 -84 l1 -63 -537 0 c-296 0 -539 3 -539 8 -4 22 -6 158 -3 164 2 3 19
2 37 -3 17 -4 122 -27 232 -50z"/>
</g>
</svg>
