<?xml version="1.0" standalone="no"?>
<!DOCTYPE svg PUBLIC "-//W3C//DTD SVG 20010904//EN"
 "http://www.w3.org/TR/2001/REC-SVG-20010904/DTD/svg10.dtd">
<svg version="1.0" xmlns="http://www.w3.org/2000/svg"
 width="411.000000pt" height="411.000000pt" viewBox="0 0 411.000000 411.000000"
 preserveAspectRatio="xMidYMid meet">
<metadata>
Created by potrace 1.11, written by Peter Selinger 2001-2013
</metadata>
<g transform="translate(0.000000,411.000000) scale(0.100000,-0.100000)"
fill="#000000" stroke="none">
<path d="M2375 3548 c-11 -6 -22 -15 -25 -19 -4 -5 -132 -10 -285 -11 l-280
-3 -5 -185 -5 -185 -80 0 c-44 0 -86 -4 -92 -9 -8 -5 -13 -31 -13 -65 l0 -57
-75 1 -75 0 -1 30 c-2 82 1 168 6 173 3 3 44 6 92 6 l88 1 1 91 c0 72 4 96 17
109 26 25 22 69 -8 85 -55 30 -106 -39 -62 -83 13 -13 20 -33 20 -54 -1 -18
-2 -52 -2 -76 l-1 -43 -85 2 c-54 1 -88 -3 -93 -10 -4 -6 -7 -60 -7 -121 l0
-109 -77 -1 c-72 -1 -78 1 -79 20 -1 11 -1 72 -1 137 0 104 2 119 22 146 39
52 -1 107 -58 80 -34 -16 -42 -60 -15 -83 16 -13 18 -31 16 -138 -1 -67 -2
-131 -2 -143 -1 -19 -6 -21 -73 -19 l-73 2 -1 74 c-1 41 -2 77 -3 82 -1 4 -67
7 -149 7 -135 0 -149 2 -165 20 -28 34 -76 20 -91 -27 -5 -15 -1 -28 13 -42
26 -26 55 -27 78 -2 16 16 33 18 148 17 l130 -1 0 -65 0 -64 -33 -7 c-85 -17
-155 -107 -154 -195 l1 -44 -59 0 c-33 -1 -98 -1 -145 -1 -47 0 -105 0 -129 1
l-44 0 1 53 c0 35 6 60 20 79 24 33 17 73 -16 84 -29 10 -48 6 -64 -14 -18
-24 -16 -49 7 -69 15 -15 20 -35 22 -93 l3 -74 200 -1 200 0 2 -77 2 -78 -282
0 c-270 0 -283 1 -300 20 -21 25 -49 26 -70 2 -49 -54 21 -124 71 -74 18 18
39 19 298 18 l279 -1 0 -85 0 -85 -332 -1 c-183 0 -336 -3 -339 -7 -3 -3 -6
-94 -6 -202 1 -162 -2 -197 -14 -202 -24 -9 -17 -60 11 -79 50 -33 104 20 71
71 -9 14 -20 25 -25 25 -5 0 -9 81 -10 180 l0 180 322 0 323 0 1 -85 1 -85
-222 -2 -221 -3 -3 -184 c-2 -149 -5 -188 -17 -201 -27 -29 -26 -58 1 -79 25
-19 45 -19 72 2 18 14 15 64 -6 79 -15 12 -17 31 -16 173 1 88 2 165 3 171 1
7 67 10 203 9 l203 0 2 -75 c3 -109 -1 -122 -40 -120 -72 4 -67 13 -67 -130
l0 -130 -37 0 c-23 0 -45 7 -59 21 -46 44 -115 -12 -80 -66 20 -30 56 -33 80
-6 13 14 30 19 67 18 27 0 52 3 56 6 3 4 7 62 7 130 l1 122 35 0 c32 0 35 -2
37 -32 2 -54 23 -101 59 -137 33 -33 116 -71 128 -58 3 3 6 -27 6 -67 0 -57
-4 -78 -21 -100 -25 -34 -19 -67 16 -83 54 -24 99 47 57 89 -15 14 -19 32 -18
88 l1 70 75 0 75 0 2 -95 c1 -52 2 -100 2 -107 1 -8 30 -13 94 -15 l92 -3 0
-73 c0 -57 -3 -76 -17 -89 -24 -22 -23 -69 1 -83 60 -32 114 27 69 76 -16 18
-19 37 -20 105 0 46 -4 89 -8 94 -5 6 -47 10 -94 9 l-86 -1 0 92 0 91 78 0 77
-1 0 -45 c0 -25 4 -48 9 -51 5 -4 44 -7 88 -7 44 0 82 -3 85 -6 4 -3 6 -95 6
-205 -1 -190 -2 -200 -23 -230 -22 -29 -22 -31 -6 -55 21 -33 68 -35 90 -5 16
23 12 43 -13 72 -13 15 -15 54 -16 240 l0 222 -90 0 -90 0 -3 36 -3 36 168 -1
168 0 5 -371 5 -370 250 0 c138 0 255 -3 260 -7 7 -4 11 -59 10 -147 -1 -118
2 -140 15 -143 8 -2 67 -4 130 -3 99 0 117 -2 128 -17 19 -27 68 -23 87 6 13
19 14 28 4 50 -7 14 -15 26 -18 27 -3 0 -14 2 -23 4 -10 2 -29 -6 -43 -17 -22
-17 -42 -20 -132 -21 -63 -1 -107 2 -109 8 -2 6 -5 73 -6 150 l-3 140 -252 1
c-139 0 -256 4 -260 8 -9 9 -12 695 -4 697 14 4 167 5 176 2 7 -2 10 -85 10
-234 0 -184 3 -233 13 -237 8 -2 210 -5 450 -6 l437 -1 1 -105 c0 -58 -3 -109
-7 -115 -4 -6 -52 -10 -111 -9 -93 1 -108 4 -136 24 -30 22 -32 22 -56 6 -28
-18 -35 -63 -14 -84 17 -17 58 -15 81 5 16 15 40 18 138 19 65 1 124 2 129 3
6 0 10 25 10 55 l0 53 170 0 c152 0 172 -2 187 -19 21 -24 55 -23 78 2 23 25
13 67 -21 82 -20 10 -29 8 -54 -10 -27 -21 -41 -22 -195 -22 l-165 0 0 69 c0
39 -4 72 -10 76 -5 3 -207 6 -450 6 l-440 0 -1 145 c0 79 0 167 0 194 0 120
-1 117 31 130 34 14 77 60 92 99 6 14 12 50 13 79 2 30 5 55 7 57 2 3 14 2 26
-2 21 -5 22 -7 24 -257 l3 -251 620 -2 c341 -1 627 -2 636 -3 23 0 20 -141 -4
-168 -37 -40 -13 -92 42 -92 30 0 54 41 42 73 -5 14 -14 26 -20 28 -6 2 -11
46 -13 99 l-3 95 -635 0 -635 0 0 95 0 95 733 1 732 1 0 -54 c0 -39 -6 -62
-20 -82 -26 -35 -14 -77 25 -87 53 -13 86 54 47 93 -17 16 -19 36 -18 212 1
129 -2 198 -9 205 -8 8 -112 11 -333 10 -227 -1 -322 2 -325 10 -3 9 -1 118 2
137 1 4 177 7 391 7 l390 0 0 -114 c0 -100 -2 -116 -20 -134 -36 -36 -6 -96
44 -86 48 10 63 58 28 90 -17 14 -19 32 -18 137 1 67 -1 125 -5 130 -3 5 -186
10 -410 11 l-404 3 0 75 c-1 130 -49 116 378 110 342 -5 374 -7 400 -24 25
-17 29 -17 52 -2 27 18 33 52 13 78 -22 26 -45 28 -74 5 -27 -21 -34 -21 -395
-22 -319 0 -368 2 -371 15 -2 8 -4 51 -3 95 l0 80 315 1 c293 1 317 0 339 -17
31 -24 53 -24 76 1 25 27 10 71 -28 84 -22 8 -31 6 -50 -12 -23 -22 -28 -22
-334 -22 -240 0 -312 3 -315 13 -2 6 -4 41 -4 77 l1 65 215 1 c118 1 218 2
223 3 4 0 7 42 7 91 0 76 3 93 20 110 32 32 9 90 -36 90 -48 0 -70 -55 -37
-93 13 -14 18 -38 19 -93 l1 -74 -111 -1 c-164 -1 -288 1 -297 6 -4 3 -9 20
-13 37 -11 61 -86 118 -155 118 -16 0 -116 -21 -222 -46 -107 -25 -205 -48
-219 -50 -14 -3 -61 -14 -105 -25 -44 -11 -88 -21 -97 -23 -17 -4 -18 9 -18
160 l0 164 545 0 c491 0 545 -2 553 -16 24 -42 106 -9 95 38 -11 47 -60 62
-96 31 -17 -16 -51 -18 -372 -19 l-353 -1 -4 56 c-6 110 -21 101 172 100 153
0 170 -2 186 -20 39 -43 110 2 86 56 -16 34 -49 41 -82 17 -27 -20 -39 -21
-525 -21 -274 0 -500 -2 -502 -5 -3 -2 -5 -73 -6 -157 l-2 -154 -167 0 c-107
0 -168 3 -169 10 -1 5 -2 26 -3 45 l-1 35 94 5 95 5 0 185 1 185 259 0 c233 0
262 -1 282 -17 27 -22 58 -23 78 -2 23 22 20 60 -6 78 -26 19 -27 19 -53 4z
m230 -328 l0 -75 -175 0 c-96 -1 -180 -4 -186 -7 -7 -5 -10 -68 -10 -184 1
-176 1 -176 -22 -185 -36 -14 -38 -12 -37 28 1 20 -3 55 -8 77 -14 53 -83 122
-130 131 l-35 7 -1 143 0 143 302 -2 302 -1 0 -75z m-295 -1310 c19 -5 48 -11
65 -14 16 -3 104 -21 195 -40 91 -20 179 -38 195 -41 17 -3 55 -11 86 -18 115
-28 208 10 234 94 6 18 20 19 326 19 l319 0 0 -115 0 -115 -733 0 -733 0 0
120 c0 66 3 120 6 120 3 0 21 -4 40 -10z"/>
</g>
</svg>
